<?xml version="1.0" encoding="iso-8859-1"?>
<!-- Generator: Adobe Illustrator 19.0.0, SVG Export Plug-In . SVG Version: 6.00 Build 0)  -->
<svg version="1.1" id="Layer_1" xmlns="http://www.w3.org/2000/svg" xmlns:xlink="http://www.w3.org/1999/xlink" x="0px" y="0px"
	 viewBox="0 0 318.959 318.959" style="enable-background:new 0 0 318.959 318.959;" xml:space="preserve">
<g>
	<g>
		<path style="fill:#F9F5ED;" d="M303.671,253.512c-11.151-37.754-67.121-33.566-91.279-44.408
			c-24.157-10.842-20.386-47.219-23.449-53.548H130.01c-3.058,6.329,0.714,42.711-23.449,53.548
			c-24.157,10.842-80.133,6.655-91.279,44.408c-6.149,20.824-5.857,27.193-7.554,50.26c0,0,76.8,15.187,150.014,15.187
			s153.488-15.187,153.488-15.187C309.527,280.699,309.82,274.337,303.671,253.512z"/>
		<path style="fill:#DBB491;" d="M171.12,220.064l37.765-12.832l0.006-0.006c-20.279-12.635-17.036-45.673-19.942-51.682H130.01
			c-2.94,6.087,0.427,39.946-20.779,52.182l0.006,0.006l37.563,12.326l12.624,32.526L171.12,220.064z"/>
		<path style="fill:#EAEAE1;" d="M303.671,253.512c-11.151-37.754-67.121-33.566-91.279-44.408
			c-24.157-10.842-20.386-47.219-23.449-53.548h-31.206c0,0-0.719,51.024,23.438,61.866s80.133,6.655,91.279,44.408
			c5.857,19.83,5.868,26.552,7.324,47.073c19.234-2.816,31.442-5.126,31.442-5.126C309.527,280.699,309.82,274.337,303.671,253.512z
			"/>
		<path style="fill:#CCA483;" d="M180.236,216.967l28.643-9.729l0.006-0.006c-20.279-12.635-17.036-45.673-19.942-51.682h-31.206
			C157.743,155.556,157.04,205.237,180.236,216.967z"/>
		<path style="fill:#C69E7F;" d="M122.081,193.152c9.78,7.959,21.24,15.85,37.338,18.132c16.137-2.288,27.569-10.342,37.36-18.334
			c-8.144-14.973-5.626-32.83-7.83-37.4H130.01C127.797,160.126,130.264,178.173,122.081,193.152z"/>
		<polygon style="fill:#C6C5AF;" points="208.885,207.238 194.676,250.859 171.12,220.064 		"/>
		<polygon style="fill:#C6C5AF;" points="109.232,207.738 123.52,250.859 146.795,220.064 		"/>
		<path style="fill:#EAEAE1;" d="M146.795,220.064l-25.72-28.536c0,0-3.389,4.817-11.843,16.21l15.091,37.405L146.795,220.064z"/>
		<path style="fill:#EAEAE1;" d="M171.12,220.064l25.72-28.536c0,0,3.592,4.311,12.045,15.704l-15.294,37.911L171.12,220.064z"/>
		<path style="fill:#E0DBD3;" d="M176.23,214.398c1.523,1.203,3.17,2.22,4.952,3.024c5.66,2.541,13.062,4.255,21.223,5.874
			l6.481-16.058c-8.453-11.393-12.045-15.704-12.045-15.704L176.23,214.398z"/>
		<circle style="fill:#6D6D6D;" cx="159.48" cy="268.412" r="7.031"/>
		<circle style="fill:#6D6D6D;" cx="159.48" cy="293.357" r="7.031"/>
		<path style="fill:#6D6D6D;" d="M166.484,318.891c0.017-0.191,0.028-0.388,0.028-0.585c0-3.884-3.148-7.031-7.031-7.031
			c-3.884,0-7.031,3.148-7.031,7.031c0,0.214,0.011,0.422,0.028,0.624c1.754,0.017,3.513,0.028,5.266,0.028
			C160.644,318.959,163.561,318.936,166.484,318.891z"/>
		
			<ellipse transform="matrix(-0.177 0.9842 -0.9842 -0.177 385.6469 -85.3759)" style="fill:#CCA483;" cx="228.519" cy="118.551" rx="21.386" ry="11.629"/>
		
			<ellipse transform="matrix(-0.9842 0.177 -0.177 -0.9842 200.0847 219.268)" style="fill:#DBB491;" cx="90.262" cy="118.558" rx="11.629" ry="21.386"/>
		<path style="fill:#DBB491;" d="M223.64,47.359h-64.221H95.231c0,0-35.989,146.614,64.187,160.806
			C259.633,193.973,223.64,47.359,223.64,47.359z"/>
		<path style="fill:#CCA483;" d="M159.418,208.165c100.216-14.192,64.221-160.806,64.221-160.806h-15.024
			c4.114,61.242,9.808,93.774-13.815,129.24C176.083,204.703,159.418,208.165,159.418,208.165z"/>
		<path style="fill:#CCA483;" d="M235.786,53.092c-5.722-22.769-34.595-48.725-76.305-48.725c-21.932,0-40.48,6.964-53.649,17.295
			c-9.645,7.565-11.978,16.901-11.978,16.901s-8.594,5.283-10.679,14.535l7.683,63.564c0,0-0.006-17.064,0.956-28.946
			c0.961-11.882,4.165-31.661,23.652-31.38c12.601,0.18,25.315,11.983,42.278,14.58c16.463,2.518,29.716-2.698,47.893,0.719
			c17.941,3.372,21.015,15.513,22.196,27.378c0.691,7.003,0.27,17.654,0.27,17.654L235.786,53.092z"/>
		<path style="fill:#3B3B3B;" d="M228.118,116.633c18.593-20.459,7.667-67.908,7.667-67.908C230.064,25.956,201.191,0,159.48,0
			c-21.931,0-40.479,6.964-53.648,17.295c-9.645,7.565-11.978,16.901-11.978,16.901s-8.594,5.283-10.679,14.535
			c0,0-10.932,47.483,7.683,67.931l0,0l0,0c0,0-0.006-21.431,0.956-33.313c0.961-11.882,4.165-31.661,23.652-31.38
			c12.601,0.18,25.315,11.983,42.278,14.58c16.463,2.518,29.716-2.698,47.893,0.719c17.941,3.372,21.015,15.513,22.196,27.378
			c0.691,7.003,0.27,22.022,0.27,22.022l0,0l0,0C228.107,116.645,228.114,116.639,228.118,116.633z"/>
	</g>
</g>
<g>
</g>
<g>
</g>
<g>
</g>
<g>
</g>
<g>
</g>
<g>
</g>
<g>
</g>
<g>
</g>
<g>
</g>
<g>
</g>
<g>
</g>
<g>
</g>
<g>
</g>
<g>
</g>
<g>
</g>
</svg>
