<?xml version="1.0" encoding="iso-8859-1"?>
<!-- Generator: Adobe Illustrator 18.0.0, SVG Export Plug-In . SVG Version: 6.00 Build 0)  -->
<!DOCTYPE svg PUBLIC "-//W3C//DTD SVG 1.1//EN" "http://www.w3.org/Graphics/SVG/1.1/DTD/svg11.dtd">
<svg version="1.1" id="Capa_1" xmlns="http://www.w3.org/2000/svg" xmlns:xlink="http://www.w3.org/1999/xlink" x="0px" y="0px"
	 viewBox="0 0 176.992 176.992" style="enable-background:new 0 0 176.992 176.992;" xml:space="preserve">
<g>
	<g>
		<defs>
			<circle id="SVGID_1_" cx="88.496" cy="88.496" r="88.495"/>
		</defs>
		<use xlink:href="#SVGID_1_"  style="overflow:visible;fill:#F5F5F5;"/>
		<clipPath id="SVGID_2_">
			<use xlink:href="#SVGID_1_"  style="overflow:visible;"/>
		</clipPath>
		<g style="clip-path:url(#SVGID_2_);">
			<g>
				<g>
					<path style="fill:#414144;" d="M43.665,104.236l39.333,9.668l-11-56.335l-16.666,9.003
						C55.333,66.572,62.665,93.236,43.665,104.236z"/>
					<path style="fill:#414144;" d="M134.665,104.236l-39.333,9.668l11-56.335l16.666,9.003
						C122.997,66.572,115.665,93.236,134.665,104.236z"/>
					<g>
						<path style="fill:#E9D2BB;" d="M147.189,169.084H30.668v-0.896c0-2.432-0.112-5.215-0.23-8.16
							c-0.499-12.418-1.123-27.869,5.871-34.863c4.125-4.127,15.904-12.334,33.882-16.93l0.439-0.113l0.194,0.158
							c3.651-3.992,5.499-8.807,5.499-14.324v-2.068h25.212v2.068c0,5.465,1.864,10.271,5.542,14.289l0.154-0.123l0.438,0.113
							c17.979,4.596,29.758,12.807,33.878,16.93c6.996,6.994,6.37,22.447,5.872,34.867c-0.119,2.943-0.23,5.725-0.23,8.156V169.084z
							"/>
					</g>
					<g>
						<g>
							<path style="fill:#E6635F;" d="M147.189,180.723H30.668v-12.535c0-2.432-0.112-5.215-0.23-8.16
								c-0.499-12.418-1.123-27.869,5.871-34.863c4.125-4.127,15.904-12.334,33.882-16.93l0.439-0.113l17.37,39.451l19.23-39.451
								l0.438,0.113c17.979,4.596,29.758,12.807,33.878,16.93c6.996,6.994,6.37,22.447,5.872,34.867
								c-0.119,2.943-0.23,5.725-0.23,8.156V180.723z"/>
						</g>
					</g>
					<g>
						<path style="fill:#FFE5CB;" d="M88.92,108.902c-5.789,0-11.024-2.38-15.454-6.074c-5.947-4.961-10.44-12.292-12.87-19.414
							c-2.985,0.326-5.353-2.91-5.353-7.025c0-2.801,1.153-5.275,2.929-6.393c-0.004-0.232-0.01-0.433-0.01-0.632
							c0-17.345,12.362-29.003,30.758-29.003c18.397,0,30.758,11.658,30.758,29.003c0,0.205-0.003,0.411-0.008,0.618
							c1.783,1.111,2.945,3.591,2.945,6.406c0,4.125-2.378,7.391-5.367,7.021C113.004,95.842,102.485,108.902,88.92,108.902z"/>
					</g>
					<g>
						<path style="fill:#FF8B26;" d="M59.675,57.767c0,0,27.261,1.703,48.56-21.298c0,0-1.457-3.406-22.202-3.406
							C59.933,33.063,59.675,57.767,59.675,57.767z"/>
					</g>
					<g>
						<path style="fill:#414144;" d="M122.3,62.074c-3.249-23.935-11.038-33.698-33.946-33.698
							c-18.886,0-29.557,9.764-32.807,33.698c-4.077,30.002,18.102-8.638,33.375-8.638C104.891,53.437,126.373,92.076,122.3,62.074z
							"/>
					</g>
					<polygon style="fill:#414144;" points="61.666,71.572 82.332,70.572 85.666,54.572 87.666,69.906 118.666,70.572 
						110.666,51.906 97.332,40.572 78.332,40.906 66.666,46.906 					"/>
					
						<ellipse transform="matrix(0.9679 -0.2515 0.2515 0.9679 -16.9994 17.1877)" style="fill:#FFE5CB;" cx="58.742" cy="75.099" rx="4.419" ry="8.749"/>
					
						<ellipse transform="matrix(-0.9781 -0.2081 0.2081 -0.9781 220.8857 173.0793)" style="fill:#FFE5CB;" cx="119.547" cy="74.921" rx="4.418" ry="8.75"/>
				</g>
			</g>
		</g>
	</g>
</g>
<g>
</g>
<g>
</g>
<g>
</g>
<g>
</g>
<g>
</g>
<g>
</g>
<g>
</g>
<g>
</g>
<g>
</g>
<g>
</g>
<g>
</g>
<g>
</g>
<g>
</g>
<g>
</g>
<g>
</g>
</svg>
