<?xml version="1.0" encoding="utf-8"?><!DOCTYPE svg PUBLIC "-//W3C//DTD SVG 1.1//EN" "http://www.w3.org/Graphics/SVG/1.1/DTD/svg11.dtd"><svg version="1.1" xmlns="http://www.w3.org/2000/svg" xmlns:xlink="http://www.w3.org/1999/xlink" x="0px" y="0px" viewBox="14.613 -12.499 54.113 125" enable-background="new 14.613 -12.499 54.113 100" xml:space="preserve"><polygon fill="#231F20" points="19.751,42.253 19.77,42.473 20.063,42.117 "/><path fill="#231F20" d="M66.581,28.105c-0.032-0.483-2.388-1.931-5.522-3.368l-15.324-7.031c-1.191-0.547-2.334-1.015-3.324-1.379
	c-0.81-0.621-1.821-1.006-2.914-1.076c2.438-2.828,3.591-7.811,3.872-12.414c0.544,0.194,2.289-1.72,1.631-2.602
	c-0.767-1.028,0.326-3.848,0.096-4.59c-0.193-0.614-1.055-1.796-2.11-0.366c-0.012-0.067-0.024-0.14-0.039-0.207
	c-0.462-2.129-2.687-3.749-2.687-3.749l-1.121,2.701l-1.81-2.73l-2.672,1.928l-0.026-3.362l-4.617,0.965l2.639-3.042
	c-0.457-0.799-5.197,0.358-5.197,0.358C20.736-9.771,16.78-3.283,18.62,2.633c0.024,0.074,0.053,0.149,0.078,0.225
	c-1.722-0.622-1.767,0.861-1.573,1.482c0.229,0.741,2.729,2.447,2.68,3.727c-0.039,0.999,2.034,1.573,2.672,1.319
	c2.086,2.664,4.741,5.2,7.457,6.722l-0.591,0.058c-2.256,0.221-4.04,1.76-4.582,3.718c-0.492,0.888-1.046,2.136-1.549,3.552
	L18.5,36.685c-1.029,2.893-1.459,5.378-0.961,5.554l1.066-1.351l0.211,0.481l-1.45,4.272c0,0-3.377,1.306-2.651,2.81
	c0.726,1.501,2.561,0.649,2.806,0.379c0.051,0.309,1.169,1.562,2.807,0.379c1.637-1.181-0.599-3.24-0.599-3.24l1.241-3.658
	l0.248,1.241c0.498,0.175,1.736-2.022,2.763-4.915l2.032-5.715c0.522,2.932,1.261,6.609,2.1,9.857l-0.435,4.169l1.515,0.326
	c-0.372,0.664-0.734,1.47-1.042,2.368l-3.988,11.603c-0.827,2.406-0.974,4.555-0.365,4.982c-0.06,0.566-0.067,1.237-0.002,1.956
	l0.78,8.924c0.06,0.688,0.176,1.323,0.324,1.857h-0.308c0,0,1.171,3.747,0,4.269c-1.174,0.523-3.732,0.723-5.226,1.156
	c-1.493,0.435-1.28,3.112-1.28,3.112h13.007v-8.537h-0.196c0.118-0.643,0.151-1.491,0.07-2.416l-0.774-8.867
	c0.651-0.679,1.399-2.034,1.965-3.683l3.99-11.604c0.268-0.785,0.466-1.542,0.589-2.221l0.228-0.024l0.678,11.523l2.235-0.21
	l-1.208,1.936l2.27,0.94l-2.278,1.099l2.311,2.388l-3.012-0.567l-0.029,0.139c0.216,3.844,0.973,6.925,1.693,6.886l0.537-1.406
	l1.239,1.109l0.023-0.025l0.135,4.278c-0.635,0.019-1.124,0.832-1.095,1.814c0.029,0.983,0.569,1.768,1.206,1.745
	c0.448-0.012,0.824-0.421,0.994-1.002c0.208,0.57,0.607,0.954,1.055,0.94c0.635-0.022,1.127-0.835,1.095-1.817
	c-0.029-0.984-0.568-1.768-1.206-1.742l-0.149-4.712l0.593-0.889l0.896,1.403c0.715-0.038,1.127-3.189,0.913-7.033l-0.988-17.604
	c-0.069-1.216-0.189-2.347-0.348-3.335l1.455-0.561l-1.146-4.285c0.415-6.161,0.219-13.7,0.066-15.26l-0.298-3.038l13.032,5.975
	c0.142,0.067,0.285,0.13,0.426,0.193c-0.56,1.218-0.562,2.548-0.465,2.984c0.245,1.093,1.887,0.001,1.693-1.566
	c-0.196-1.569,1.821,0.417,2.027,2.732c0.203,2.311,2.212,2.154,2.212,2.154s5.026-1.418,5.184-2.12
	C68.847,32.593,67.901,29.305,66.581,28.105z M19.751,42.253l0.312-0.136l-0.295,0.355L19.751,42.253z M39.067-3.109
	c0.163,0.861-1.214,1.85-3.082,2.208c-1.867,0.359-3.515-0.049-3.679-0.91L39.067-3.109z M32.279,3.673
	c0.887,0.221,2.922,0.864,1.714,1.308l-2.383,0.741C30.365,6.041,31.675,4.357,32.279,3.673z M33.363,7.614L33.363,7.614
	c0.041-0.014,0.086-0.027,0.13-0.041c0.042-0.013,0.087-0.029,0.128-0.04v0.001c1.264-0.374,3.253-0.817,3.409-0.319l-0.373,1.447
	c-0.12-0.379-1.682-0.015-2.604,0.265c-0.917,0.292-2.41,0.877-2.292,1.256l-1.388-0.899C30.22,8.786,32.109,8.023,33.363,7.614z
	 M26.535,2.037c-1.743,0.763-3.437,0.732-3.791-0.07l6.304-2.763C29.401,0.004,28.275,1.274,26.535,2.037z M33.173,15.775
	l0.406-1.499c0.12,0.392,1.357,0.132,2.083-0.086c0.719-0.231,1.886-0.721,1.763-1.11l0.981,1.069
	c0.135,0.437-0.908,0.962-1.825,1.31l-3.4,0.332C33.177,15.786,33.174,15.781,33.173,15.775z"/></svg>
